<?xml version="1.0" encoding="UTF-8" standalone="no"?>
<svg width="162px" height="83px" viewBox="0 0 162 83" version="1.1" xmlns="http://www.w3.org/2000/svg" xmlns:xlink="http://www.w3.org/1999/xlink" xmlns:sketch="http://www.bohemiancoding.com/sketch/ns">
    <!-- Generator: Sketch 3.0.2 (7799) - http://www.bohemiancoding.com/sketch -->
    <title>Imported Layers</title>
    <description>Created with Sketch.</description>
    <defs></defs>
    <g id="Welcome" stroke="none" stroke-width="1" fill="none" fill-rule="evenodd" sketch:type="MSPage">
        <g id="Desktop" sketch:type="MSArtboardGroup" transform="translate(-171.000000, -61.000000)">
            <g id="HEADER" sketch:type="MSLayerGroup" transform="translate(0.000000, -2.000000)">
                <g id="Imported-Layers" transform="translate(171.000000, 63.000000)" sketch:type="MSShapeGroup">
                    <path d="M0.174785933,57.1556886 L161.010339,57.1556886 L161.010339,82.9701796 L0.174785933,82.9701796 L0.174785933,57.1556886 Z" id="Fill-1" fill="#00A3DB"></path>
                    <path d="M7.22136697,0.00447305389 L13.7622997,0.00447305389 L13.7622997,6.6071976 L7.22136697,6.6071976 L7.22136697,0.00447305389 Z M7.22136697,13.2740359 L13.7622997,13.2740359 L13.7622997,46.0923353 L7.22136697,46.0923353 L7.22136697,13.2740359 Z" id="Fill-2" fill="#0A0A0A"></path>
                    <path d="M20.4312446,3.30558683 L26.9721774,3.30558683 L26.9721774,13.2740359 L31.0114557,13.2740359 L31.0114557,18.4523413 L26.9721774,18.4523413 L26.9721774,36.6417665 C26.9721774,39.6839401 28.1262569,39.8782695 31.0114557,39.8782695 L31.0114557,46.0923353 L28.3187676,46.0923353 C22.4188807,46.0923353 20.4312446,41.8846826 20.4312446,38.3897365 L20.4312446,18.4523413 L17.1610245,18.4523413 L17.1610245,13.2740359 L20.4312446,13.2740359 L20.4312446,3.30558683" id="Fill-3" fill="#0A0A0A"></path>
                    <path d="M41.7206636,36.6417665 C41.7206636,38.7127904 42.9392416,39.8782695 44.9268777,39.8782695 C47.4280398,39.8782695 48.0050795,38.0010778 48.1330917,36.5771557 L54.6740245,36.5771557 C54.6740245,39.2957784 53.7119633,41.8200719 52.0448502,43.5675449 C50.3132385,45.3806228 47.9410734,46.480497 44.9268777,46.480497 C40.9511131,46.480497 37.9374098,44.6033054 36.3983089,41.7554611 C35.5007462,40.0725988 35.1797309,37.7421377 35.1797309,35.0886228 L35.1797309,24.2782455 C35.1797309,21.6242335 35.5007462,19.2942695 36.3983089,17.6114072 C37.9374098,14.7630659 40.9511131,12.8858743 44.9268777,12.8858743 C50.9547768,12.8858743 54.6740245,17.2873593 54.6740245,23.3717066 L48.1330917,23.3717066 C48.1330917,20.7181916 46.9150061,19.4881018 44.9268777,19.4881018 C42.9392416,19.4881018 41.7206636,20.7828024 41.7206636,23.242485 L41.7206636,36.6417665" id="Fill-4" fill="#0A0A0A"></path>
                    <path d="M65.1931835,0.00447305389 L65.1931835,36.8355988 C65.1931835,39.2957784 65.8987278,40.007988 68.3998899,40.2669281 L68.3998899,46.480497 C62.3719908,46.480497 58.6527431,44.9268563 58.6527431,37.2893653 L58.6527431,0.00447305389 L65.1931835,0.00447305389 Z" id="Fill-5" fill="#0A0A0A"></path>
                    <path d="M72.2466575,0.00447305389 L78.7875902,0.00447305389 L78.7875902,6.6071976 L72.2466575,6.6071976 L72.2466575,0.00447305389 Z M72.2466575,13.2740359 L78.7875902,13.2740359 L78.7875902,46.0923353 L72.2466575,46.0923353 L72.2466575,13.2740359 Z" id="Fill-6" fill="#0A0A0A"></path>
                    <path d="M90.0733456,29.3268323 L82.4428318,13.2740359 L89.3682936,13.2740359 L93.4085566,22.5953832 L97.4483272,13.2740359 L104.373297,13.2740359 L96.6142783,29.3268323 L104.75881,46.0923353 L97.8323639,46.0923353 L93.4085566,36.0587784 L88.9837645,46.0923353 L82.0578104,46.0923353 L90.0733456,29.3268323" id="Fill-7" fill="#0A0A0A"></path>
                    <path d="M108.316566,39.4896108 L114.857006,39.4896108 L114.857006,46.0923353 L108.316566,46.0923353 L108.316566,39.4896108 Z" id="Fill-8" fill="#D9222A"></path>
                    <path d="M125.791713,13.2740359 L125.791713,16.4459281 L125.920217,16.4459281 C127.266807,14.3744072 129.061933,12.8858743 132.076128,12.8858743 C135.345856,12.8858743 138.80908,15.022006 138.80908,20.912024 L138.80908,46.0923353 L132.268147,46.0923353 L132.268147,23.3717066 C132.268147,20.9771317 131.11456,19.4881018 129.061933,19.4881018 C126.625761,19.4881018 125.791713,21.1063533 125.791713,24.0193054 L125.791713,46.0923353 L119.251272,46.0923353 L119.251272,13.2740359 L125.791713,13.2740359 Z" id="Fill-9" fill="#0A0A0A"></path>
                    <path d="M144.099924,0.00447305389 L150.640856,0.00447305389 L150.640856,36.8355988 C150.640856,39.2957784 151.346401,40.007988 153.84707,40.2669281 L153.84707,46.480497 C147.819171,46.480497 144.099924,44.9268563 144.099924,37.2893653 L144.099924,0.00447305389" id="Fill-10" fill="#0A0A0A"></path>
                    <path d="M9.85152599,76.277994 C7.39615291,76.277994 5.87822324,74.4987126 5.87822324,71.6041497 C5.87822324,68.7090898 7.39615291,66.9308024 9.85152599,66.9308024 C11.0888135,66.9308024 11.8573792,67.2518683 12.8322416,68.3303713 L12.1759327,68.9362216 C11.407367,68.0659641 10.8076789,67.7821737 9.85152599,67.7821737 C8.839737,67.7821737 7.99584098,68.1986647 7.45228135,68.9928802 C7.00276147,69.6548922 6.83388379,70.3745569 6.83388379,71.6041497 C6.83388379,72.8342395 7.00276147,73.5529102 7.45228135,74.2154192 C7.99584098,75.0101317 8.839737,75.4266228 9.85152599,75.4266228 C10.8076789,75.4266228 11.407367,75.1423353 12.1759327,74.2720778 L12.8322416,74.8774311 C11.8573792,75.9559341 11.0888135,76.277994 9.85152599,76.277994" id="Fill-11" fill="#FFFFFF"></path>
                    <path d="M21.3598257,75.2750359 C20.7227187,75.9181617 19.8601131,76.277994 18.8483242,76.277994 C17.8360428,76.277994 16.9739297,75.9181617 16.3363303,75.2750359 C15.3806697,74.3103473 15.211792,72.9097844 15.211792,71.6041497 C15.211792,70.298515 15.3806697,68.8984491 16.3363303,67.9332635 C16.9739297,67.2901377 17.8360428,66.9308024 18.8483242,66.9308024 C19.8601131,66.9308024 20.7227187,67.2901377 21.3598257,67.9332635 C22.3159786,68.8984491 22.4843639,70.298515 22.4843639,71.6041497 C22.4843639,72.9097844 22.3159786,74.3103473 21.3598257,75.2750359 L21.3598257,75.2750359 Z M20.7227187,68.557503 C20.2352875,68.0659641 19.5794709,67.7821737 18.8483242,67.7821737 C18.1171774,67.7821737 17.4608685,68.0659641 16.9739297,68.557503 C16.2240734,69.3149401 16.1674526,70.5445329 16.1674526,71.6041497 C16.1674526,72.6637665 16.2240734,73.8938563 16.9739297,74.6502994 C17.4608685,75.1423353 18.1171774,75.4266228 18.8483242,75.4266228 C19.5794709,75.4266228 20.2352875,75.1423353 20.7227187,74.6502994 C21.4720826,73.8938563 21.5287034,72.6637665 21.5287034,71.6041497 C21.5287034,70.5445329 21.4720826,69.3149401 20.7227187,68.557503 L20.7227187,68.557503 Z" id="Fill-12" fill="#FFFFFF"></path>
                    <path d="M37.9684281,76.1641796 L37.9684281,70.5067605 C37.9684281,68.7468623 37.0876055,67.7821737 35.4756361,67.7821737 C33.9197951,67.7821737 32.9262232,68.7846347 32.9262232,70.3362874 L32.9262232,76.1641796 L31.9705627,76.1641796 L31.9705627,70.5067605 C31.9705627,68.7468623 31.0892477,67.7821737 29.4772783,67.7821737 C27.8653089,67.7821737 26.9278654,68.7846347 26.9278654,70.5067605 L26.9278654,76.1641796 L25.9722049,76.1641796 L25.9722049,67.0441198 L26.9278654,67.0441198 L26.9278654,68.1226228 C27.5841743,67.3467964 28.5216177,66.9308024 29.608737,66.9308024 C30.9395719,66.9308024 31.9705627,67.5172695 32.5141223,68.5957725 C33.1886483,67.5172695 34.2570581,66.9308024 35.587893,66.9308024 C36.5814648,66.9308024 37.406159,67.2518683 37.9684281,67.8010599 C38.5686086,68.3875269 38.9053792,69.2582814 38.9053792,70.3362874 L38.9053792,76.1641796 L37.9684281,76.1641796" id="Fill-13" fill="#FFFFFF"></path>
                    <path d="M48.6554801,75.4832814 C48.1867584,75.9559341 47.3807737,76.277994 46.4438226,76.277994 C45.4315413,76.277994 44.5502263,76.0508623 43.7629511,74.9912455 L43.7629511,76.1641796 L42.8072905,76.1641796 L42.8072905,62.6923353 L43.7629511,62.6923353 L43.7629511,68.2175509 C44.5502263,67.1574371 45.4315413,66.9308024 46.4438226,66.9308024 C47.3807737,66.9308024 48.1867584,67.2518683 48.6554801,67.725515 C49.5737217,68.6524311 49.8174373,70.1663114 49.8174373,71.6041497 C49.8174373,73.042485 49.5737217,74.5558683 48.6554801,75.4832814 L48.6554801,75.4832814 Z M46.3123639,67.7821737 C44.1007064,67.7821737 43.7629511,69.7120479 43.7629511,71.6041497 C43.7629511,73.4962515 44.1007064,75.4266228 46.3123639,75.4266228 C48.5240214,75.4266228 48.8617768,73.4962515 48.8617768,71.6041497 C48.8617768,69.7120479 48.5240214,67.7821737 46.3123639,67.7821737 L46.3123639,67.7821737 Z" id="Fill-14" fill="#FFFFFF"></path>
                    <path d="M53.1930214,62.6923353 L54.3736881,62.6923353 L54.3736881,63.8841557 L53.1930214,63.8841557 L53.1930214,62.6923353 Z M53.3057706,67.0441198 L54.2614312,67.0441198 L54.2614312,76.1641796 L53.3057706,76.1641796 L53.3057706,67.0441198 Z" id="Fill-15" fill="#FFFFFF"></path>
                    <path d="M64.2714954,76.1641796 L64.2714954,70.5067605 C64.2714954,68.7468623 63.3906728,67.7821737 61.7787034,67.7821737 C60.1667339,67.7821737 59.2292905,68.7846347 59.2292905,70.5067605 L59.2292905,76.1641796 L58.2731376,76.1641796 L58.2731376,67.0441198 L59.2292905,67.0441198 L59.2292905,68.1226228 C59.9038165,67.3279102 60.803841,66.9308024 61.8909602,66.9308024 C62.9032416,66.9308024 63.7092263,67.232982 64.2902049,67.8010599 C64.889893,68.3875269 65.227156,69.2582814 65.227156,70.3362874 L65.227156,76.1641796 L64.2714954,76.1641796" id="Fill-16" fill="#FFFFFF"></path>
                    <path d="M69.558893,71.8123952 C69.558893,74.120988 70.5903761,75.4077365 72.5016972,75.4077365 C73.5705994,75.4077365 74.2264159,75.0856766 74.9949817,74.3103473 L75.707419,74.8774311 C74.788685,75.8048443 73.9452813,76.277994 72.4455688,76.277994 C69.9527768,76.277994 68.6032324,74.6502994 68.6032324,71.6041497 C68.6032324,68.6713174 69.9527768,66.9308024 72.221055,66.9308024 C74.4701315,66.9308024 75.8383853,68.5957725 75.8383853,71.377018 L75.8383853,71.8123952 L69.558893,71.8123952 L69.558893,71.8123952 Z M74.5636789,69.3149401 C74.1702875,68.3681437 73.2515535,67.7821737 72.221055,67.7821737 C71.1900642,67.7821737 70.2713303,68.3681437 69.8779388,69.3149401 C69.6529327,69.882024 69.5968043,70.1663114 69.558893,71.0365689 L74.8822324,71.0365689 C74.8448135,70.1663114 74.788685,69.882024 74.5636789,69.3149401 L74.5636789,69.3149401 Z" id="Fill-17" fill="#FFFFFF"></path>
                    <path d="M79.7388196,71.8123952 C79.7388196,74.120988 80.7698104,75.4077365 82.6821162,75.4077365 C83.750526,75.4077365 84.4063425,75.0856766 85.1749083,74.3103473 L85.8868532,74.8774311 C84.9686116,75.8048443 84.1247156,76.277994 82.6254954,76.277994 C80.1327034,76.277994 78.783159,74.6502994 78.783159,71.6041497 C78.783159,68.6713174 80.1327034,66.9308024 82.4004893,66.9308024 C84.6500581,66.9308024 86.0183119,68.5957725 86.0183119,71.377018 L86.0183119,71.8123952 L79.7388196,71.8123952 L79.7388196,71.8123952 Z M84.7436055,69.3149401 C84.3497217,68.3681437 83.4314801,67.7821737 82.4004893,67.7821737 C81.3699908,67.7821737 80.4512569,68.3681437 80.0578654,69.3149401 C79.8328593,69.882024 79.7762385,70.1663114 79.7388196,71.0365689 L85.0626514,71.0365689 C85.0247401,70.1663114 84.9686116,69.882024 84.7436055,69.3149401 L84.7436055,69.3149401 Z" id="Fill-18" fill="#FFFFFF"></path>
                    <path d="M94.5670673,68.5008443 C94.024,67.9526467 93.6114067,67.7821737 92.8615505,67.7821737 C91.3057095,67.7821737 90.4435963,69.0689222 90.4435963,70.5445329 L90.4435963,76.1641796 L89.4874434,76.1641796 L89.4874434,67.0441198 L90.4435963,67.0441198 L90.4435963,68.2553234 C90.9684465,67.4034551 92.0181468,66.9308024 93.0860642,66.9308024 C93.9486697,66.9308024 94.6231957,67.1574371 95.2607951,67.8010599 L94.5670673,68.5008443" id="Fill-19" fill="#FFFFFF"></path>
                    <path d="M99.9288104,76.1641796 C98.5044281,76.1641796 97.7545719,75.1617186 97.7545719,73.7800419 L97.7545719,67.7632874 L96.5172844,67.7632874 L96.5172844,67.0441198 L97.7545719,67.0441198 L97.7545719,64.1301737 L98.7102324,64.1301737 L98.7102324,67.0441198 L100.753997,67.0441198 L100.753997,67.7632874 L98.7102324,67.7632874 L98.7102324,73.7989281 C98.7102324,74.7452275 99.1415352,75.3128084 100.097688,75.3128084 L100.753997,75.3128084 L100.753997,76.1641796 L99.9288104,76.1641796" id="Fill-20" fill="#FFFFFF"></path>
                    <path d="M111.551829,76.1641796 C110.127939,76.1641796 109.37759,75.1617186 109.37759,73.7800419 L109.37759,67.7632874 L108.140795,67.7632874 L108.140795,67.0441198 L109.37759,67.0441198 L109.37759,64.1301737 L110.333743,64.1301737 L110.333743,67.0441198 L112.377015,67.0441198 L112.377015,67.7632874 L110.333743,67.7632874 L110.333743,73.7989281 C110.333743,74.7452275 110.765046,75.3128084 111.720706,75.3128084 L112.377015,75.3128084 L112.377015,76.1641796 L111.551829,76.1641796" id="Fill-21" fill="#FFFFFF"></path>
                    <path d="M120.738183,76.1641796 L120.738183,75.2561497 C119.969618,76.031479 119.25718,76.277994 117.982474,76.277994 C116.651639,76.277994 115.901783,76.0508623 115.321297,75.445509 C114.908703,75.0101317 114.664988,74.3481198 114.664988,73.6667246 C114.664988,72.0012575 115.845654,71.0365689 117.814089,71.0365689 L120.738183,71.0365689 L120.738183,70.0147246 C120.738183,68.557503 120.025746,67.7821737 118.188771,67.7821737 C116.914064,67.7821737 116.258248,68.1037365 115.695486,68.9362216 L115.002251,68.3303713 C115.770817,67.2518683 116.726477,66.9308024 118.188771,66.9308024 C120.569306,66.9308024 121.693844,68.0093054 121.693844,69.9202934 L121.693844,76.1641796 L120.738183,76.1641796 L120.738183,76.1641796 Z M120.738183,71.8123952 L117.926346,71.8123952 C116.370997,71.8123952 115.620648,72.4366347 115.620648,73.6478383 C115.620648,74.8585449 116.351795,75.4266228 117.982474,75.4266228 C118.807661,75.4266228 119.594443,75.3505808 120.23155,74.7258443 C120.569306,74.4042814 120.738183,73.8371976 120.738183,72.9858263 L120.738183,71.8123952 L120.738183,71.8123952 Z" id="Fill-22" fill="#FFFFFF"></path>
                    <path d="M127.769009,76.1641796 C126.306716,76.1641796 125.594771,75.2183772 125.594771,73.7989281 L125.594771,62.6923353 L126.550431,62.6923353 L126.550431,73.7800419 C126.550431,74.8018862 126.868985,75.3128084 127.937887,75.3128084 L128.593703,75.3128084 L128.593703,76.1641796 L127.769009,76.1641796" id="Fill-23" fill="#FFFFFF"></path>
                    <path d="M131.346459,71.8123952 C131.346459,74.120988 132.376957,75.4077365 134.289263,75.4077365 C135.357673,75.4077365 136.013489,75.0856766 136.782055,74.3103473 L137.494492,74.8774311 C136.576251,75.8048443 135.732355,76.277994 134.233135,76.277994 C131.73985,76.277994 130.390306,74.6502994 130.390306,71.6041497 C130.390306,68.6713174 131.73985,66.9308024 134.008128,66.9308024 C136.257205,66.9308024 137.625459,68.5957725 137.625459,71.377018 L137.625459,71.8123952 L131.346459,71.8123952 L131.346459,71.8123952 Z M136.350752,69.3149401 C135.957361,68.3681437 135.039119,67.7821737 134.008128,67.7821737 C132.977138,67.7821737 132.058896,68.3681437 131.665012,69.3149401 C131.440006,69.882024 131.383878,70.1663114 131.346459,71.0365689 L136.669798,71.0365689 C136.632379,70.1663114 136.576251,69.882024 136.350752,69.3149401 L136.350752,69.3149401 Z" id="Fill-24" fill="#FFFFFF"></path>
                    <path d="M147.092948,76.1641796 L147.092948,70.5067605 C147.092948,68.7468623 146.212125,67.7821737 144.600156,67.7821737 C142.988187,67.7821737 142.051235,68.7846347 142.051235,70.5067605 L142.051235,76.1641796 L141.09459,76.1641796 L141.09459,67.0441198 L142.051235,67.0441198 L142.051235,68.1226228 C142.725761,67.3279102 143.625294,66.9308024 144.712413,66.9308024 C145.725187,66.9308024 146.530679,67.232982 147.111657,67.8010599 C147.711838,68.3875269 148.049101,69.2582814 148.049101,70.3362874 L148.049101,76.1641796 L147.092948,76.1641796" id="Fill-25" fill="#FFFFFF"></path>
                    <path d="M154.348287,76.1641796 C152.924398,76.1641796 152.174049,75.1617186 152.174049,73.7800419 L152.174049,67.7632874 L150.936761,67.7632874 L150.936761,67.0441198 L152.174049,67.0441198 L152.174049,64.1301737 L153.130202,64.1301737 L153.130202,67.0441198 L155.173474,67.0441198 L155.173474,67.7632874 L153.130202,67.7632874 L153.130202,73.7989281 C153.130202,74.7452275 153.561505,75.3128084 154.517165,75.3128084 L155.173474,75.3128084 L155.173474,76.1641796 L154.348287,76.1641796" id="Fill-26" fill="#FFFFFF"></path>
                </g>
            </g>
        </g>
    </g>
</svg>